<?xml version="1.0" encoding="UTF-8" standalone="no"?>
<!DOCTYPE svg PUBLIC "-//W3C//DTD SVG 1.1//EN"
 "http://www.w3.org/Graphics/SVG/1.1/DTD/svg11.dtd">
<!-- Generated by graphviz version 2.50.0 (0)
 -->
<!-- Pages: 1 -->
<svg width="633pt" height="136pt"
 viewBox="0.00 0.00 633.00 136.00" xmlns="http://www.w3.org/2000/svg" xmlns:xlink="http://www.w3.org/1999/xlink">
<g id="graph0" class="graph" transform="scale(1 1) rotate(0) translate(4 132)">
<polygon fill="white" stroke="transparent" points="-4,4 -4,-132 629,-132 629,4 -4,4"/>
<g id="node1" class="node">
<title></title>
</g>
<!-- 0 -->
<g id="node2" class="node">
<title>0</title>
<ellipse fill="none" stroke="black" cx="109" cy="-83" rx="18" ry="18"/>
<text text-anchor="middle" x="109" y="-79.3" font-family="Times,serif" font-size="14.00">0</text>
</g>
<!-- &#45;&gt;0 -->
<g id="edge1" class="edge">
<title>&#45;&gt;0</title>
<path fill="none" stroke="black" d="M54.19,-83C62.65,-83 72.05,-83 80.6,-83"/>
<polygon fill="black" stroke="black" points="80.83,-86.5 90.83,-83 80.83,-79.5 80.83,-86.5"/>
</g>
<!-- 2 -->
<g id="node3" class="node">
<title>2</title>
<ellipse fill="none" stroke="black" cx="190" cy="-83" rx="18" ry="18"/>
<text text-anchor="middle" x="190" y="-79.3" font-family="Times,serif" font-size="14.00">2</text>
</g>
<!-- 0&#45;&gt;2 -->
<g id="edge2" class="edge">
<title>0&#45;&gt;2</title>
<path fill="none" stroke="black" d="M127.14,-83C137.29,-83 150.37,-83 161.88,-83"/>
<polygon fill="black" stroke="black" points="161.89,-86.5 171.89,-83 161.89,-79.5 161.89,-86.5"/>
<text text-anchor="middle" x="149.5" y="-86.8" font-family="Times,serif" font-size="14.00">a</text>
</g>
<!-- 5 -->
<g id="node5" class="node">
<title>5</title>
<ellipse fill="none" stroke="black" cx="272" cy="-110" rx="18" ry="18"/>
<text text-anchor="middle" x="272" y="-106.3" font-family="Times,serif" font-size="14.00">5</text>
</g>
<!-- 2&#45;&gt;5 -->
<g id="edge3" class="edge">
<title>2&#45;&gt;5</title>
<path fill="none" stroke="black" d="M207.19,-88.46C218.03,-92.12 232.55,-97.02 244.99,-101.22"/>
<polygon fill="black" stroke="black" points="244.24,-104.66 254.83,-104.54 246.48,-98.03 244.24,-104.66"/>
<text text-anchor="middle" x="231" y="-101.8" font-family="Times,serif" font-size="14.00">b</text>
</g>
<!-- 6 -->
<g id="node6" class="node">
<title>6</title>
<ellipse fill="none" stroke="black" cx="272" cy="-56" rx="18" ry="18"/>
<text text-anchor="middle" x="272" y="-52.3" font-family="Times,serif" font-size="14.00">6</text>
</g>
<!-- 2&#45;&gt;6 -->
<g id="edge4" class="edge">
<title>2&#45;&gt;6</title>
<path fill="none" stroke="black" d="M207.19,-77.54C218.03,-73.88 232.55,-68.98 244.99,-64.78"/>
<polygon fill="black" stroke="black" points="246.48,-67.97 254.83,-61.46 244.24,-61.34 246.48,-67.97"/>
<text text-anchor="middle" x="231" y="-74.8" font-family="Times,serif" font-size="14.00">b</text>
</g>
<!-- 1 -->
<g id="node4" class="node">
<title>1</title>
<ellipse fill="none" stroke="black" cx="603" cy="-61" rx="18" ry="18"/>
<ellipse fill="none" stroke="black" cx="603" cy="-61" rx="22" ry="22"/>
<text text-anchor="middle" x="603" y="-57.3" font-family="Times,serif" font-size="14.00">1</text>
</g>
<!-- 4 -->
<g id="node8" class="node">
<title>4</title>
<ellipse fill="none" stroke="black" cx="354" cy="-72" rx="18" ry="18"/>
<text text-anchor="middle" x="354" y="-68.3" font-family="Times,serif" font-size="14.00">4</text>
</g>
<!-- 5&#45;&gt;4 -->
<g id="edge10" class="edge">
<title>5&#45;&gt;4</title>
<path fill="none" stroke="black" d="M288.81,-102.49C300.05,-97.15 315.39,-89.86 328.25,-83.75"/>
<polygon fill="black" stroke="black" points="329.97,-86.81 337.5,-79.36 326.97,-80.49 329.97,-86.81"/>
<text text-anchor="middle" x="313" y="-96.8" font-family="Times,serif" font-size="14.00">c</text>
</g>
<!-- 6&#45;&gt;4 -->
<g id="edge11" class="edge">
<title>6&#45;&gt;4</title>
<path fill="none" stroke="black" d="M289.97,-59.39C300.47,-61.49 314.18,-64.24 326.13,-66.63"/>
<polygon fill="black" stroke="black" points="325.57,-70.08 336.06,-68.61 326.94,-63.22 325.57,-70.08"/>
<text text-anchor="middle" x="313" y="-67.8" font-family="Times,serif" font-size="14.00">d</text>
</g>
<!-- 6&#45;&gt;4 -->
<g id="edge12" class="edge">
<title>6&#45;&gt;4</title>
<path fill="none" stroke="black" d="M290.26,-55.99C298.7,-56.28 308.97,-57.06 318,-59 321.23,-59.69 324.57,-60.63 327.83,-61.67"/>
<polygon fill="black" stroke="black" points="326.67,-64.97 337.26,-65.05 329.03,-58.38 326.67,-64.97"/>
</g>
<!-- 3 -->
<g id="node7" class="node">
<title>3</title>
<ellipse fill="none" stroke="black" cx="518" cy="-61" rx="18" ry="18"/>
<text text-anchor="middle" x="518" y="-57.3" font-family="Times,serif" font-size="14.00">3</text>
</g>
<!-- 3&#45;&gt;1 -->
<g id="edge6" class="edge">
<title>3&#45;&gt;1</title>
<path fill="none" stroke="black" d="M536.2,-61C546.16,-61 559,-61 570.7,-61"/>
<polygon fill="black" stroke="black" points="571,-64.5 581,-61 571,-57.5 571,-64.5"/>
<text text-anchor="middle" x="558.5" y="-64.8" font-family="Times,serif" font-size="14.00">e</text>
</g>
<!-- 3&#45;&gt;1 -->
<g id="edge7" class="edge">
<title>3&#45;&gt;1</title>
<path fill="none" stroke="black" d="M533.31,-51.13C539.4,-47.51 546.76,-43.84 554,-42 561,-40.22 568.36,-41.45 575.14,-43.96"/>
<polygon fill="black" stroke="black" points="574.04,-47.31 584.58,-48.37 577,-40.97 574.04,-47.31"/>
<text text-anchor="middle" x="558.5" y="-45.8" font-family="Times,serif" font-size="14.00">f</text>
</g>
<!-- 3&#45;&gt;4 -->
<g id="edge5" class="edge">
<title>3&#45;&gt;4</title>
<path fill="none" stroke="black" d="M503.64,-72.65C491.61,-82.2 472.96,-94.81 454,-99 426.01,-105.18 416.54,-101.84 390,-91 386.4,-89.53 382.68,-87.78 379.09,-85.96"/>
<polygon fill="black" stroke="black" points="380.45,-82.72 369.98,-81.07 377.13,-88.88 380.45,-82.72"/>
</g>
<!-- 7 -->
<g id="node9" class="node">
<title>7</title>
<ellipse fill="none" stroke="black" cx="436" cy="-72" rx="18" ry="18"/>
<text text-anchor="middle" x="436" y="-68.3" font-family="Times,serif" font-size="14.00">7</text>
</g>
<!-- 4&#45;&gt;7 -->
<g id="edge8" class="edge">
<title>4&#45;&gt;7</title>
<path fill="none" stroke="black" d="M372.36,-72C382.7,-72 396.06,-72 407.78,-72"/>
<polygon fill="black" stroke="black" points="407.95,-75.5 417.95,-72 407.95,-68.5 407.95,-75.5"/>
<text text-anchor="middle" x="395" y="-75.8" font-family="Times,serif" font-size="14.00">b</text>
</g>
<!-- 8 -->
<g id="node10" class="node">
<title>8</title>
<ellipse fill="none" stroke="black" cx="436" cy="-18" rx="18" ry="18"/>
<text text-anchor="middle" x="436" y="-14.3" font-family="Times,serif" font-size="14.00">8</text>
</g>
<!-- 4&#45;&gt;8 -->
<g id="edge9" class="edge">
<title>4&#45;&gt;8</title>
<path fill="none" stroke="black" d="M369.3,-62.35C381.17,-54.33 398.28,-42.78 412.06,-33.48"/>
<polygon fill="black" stroke="black" points="414.22,-36.25 420.55,-27.75 410.31,-30.45 414.22,-36.25"/>
<text text-anchor="middle" x="395" y="-52.8" font-family="Times,serif" font-size="14.00">b</text>
</g>
<!-- 7&#45;&gt;3 -->
<g id="edge13" class="edge">
<title>7&#45;&gt;3</title>
<path fill="none" stroke="black" d="M453.97,-69.67C464.47,-68.22 478.18,-66.34 490.13,-64.69"/>
<polygon fill="black" stroke="black" points="490.63,-68.16 500.06,-63.33 489.67,-61.22 490.63,-68.16"/>
<text text-anchor="middle" x="477" y="-70.8" font-family="Times,serif" font-size="14.00">c</text>
</g>
<!-- 8&#45;&gt;3 -->
<g id="edge14" class="edge">
<title>8&#45;&gt;3</title>
<path fill="none" stroke="black" d="M452.42,-26.29C463.9,-32.46 479.77,-40.99 492.91,-48.05"/>
<polygon fill="black" stroke="black" points="491.43,-51.23 501.89,-52.88 494.74,-45.06 491.43,-51.23"/>
<text text-anchor="middle" x="477" y="-46.8" font-family="Times,serif" font-size="14.00">d</text>
</g>
<!-- 8&#45;&gt;3 -->
<g id="edge15" class="edge">
<title>8&#45;&gt;3</title>
<path fill="none" stroke="black" d="M453.83,-22.08C462.54,-24.57 473.17,-28.2 482,-33 486.83,-35.63 491.66,-38.94 496.13,-42.36"/>
<polygon fill="black" stroke="black" points="494.2,-45.3 504.16,-48.91 498.62,-39.88 494.2,-45.3"/>
</g>
</g>
</svg>
