<?xml version="1.0" encoding="UTF-8" standalone="no"?>
<!DOCTYPE svg PUBLIC "-//W3C//DTD SVG 1.1//EN"
 "http://www.w3.org/Graphics/SVG/1.1/DTD/svg11.dtd">
<!-- Generated by graphviz version 2.50.0 (0)
 -->
<!-- Pages: 1 -->
<svg width="631pt" height="116pt"
 viewBox="0.00 0.00 631.00 116.00" xmlns="http://www.w3.org/2000/svg" xmlns:xlink="http://www.w3.org/1999/xlink">
<g id="graph0" class="graph" transform="scale(1 1) rotate(0) translate(4 112)">
<polygon fill="white" stroke="transparent" points="-4,4 -4,-112 627,-112 627,4 -4,4"/>
<g id="node1" class="node">
<title></title>
</g>
<!-- 0 -->
<g id="node2" class="node">
<title>0</title>
<ellipse fill="none" stroke="black" cx="109" cy="-45" rx="18" ry="18"/>
<text text-anchor="middle" x="109" y="-41.3" font-family="Times,serif" font-size="14.00">0</text>
</g>
<!-- &#45;&gt;0 -->
<g id="edge1" class="edge">
<title>&#45;&gt;0</title>
<path fill="none" stroke="black" d="M54.19,-45C62.65,-45 72.05,-45 80.6,-45"/>
<polygon fill="black" stroke="black" points="80.83,-48.5 90.83,-45 80.83,-41.5 80.83,-48.5"/>
</g>
<!-- 2 -->
<g id="node4" class="node">
<title>2</title>
<ellipse fill="none" stroke="black" cx="191" cy="-45" rx="18" ry="18"/>
<text text-anchor="middle" x="191" y="-41.3" font-family="Times,serif" font-size="14.00">1</text>
</g>
<!-- 0&#45;&gt;2 -->
<g id="edge2" class="edge">
<title>0&#45;&gt;2</title>
<path fill="none" stroke="black" d="M127.36,-45C137.7,-45 151.06,-45 162.78,-45"/>
<polygon fill="black" stroke="black" points="162.95,-48.5 172.95,-45 162.95,-41.5 162.95,-48.5"/>
<text text-anchor="middle" x="150" y="-48.8" font-family="Times,serif" font-size="14.00">b</text>
</g>
<!-- 0&#45;&gt;2 -->
<g id="edge3" class="edge">
<title>0&#45;&gt;2</title>
<path fill="none" stroke="black" d="M124.31,-35.13C130.4,-31.51 137.76,-27.84 145,-26 152.46,-24.11 160.28,-25.94 167.28,-29.1"/>
<polygon fill="black" stroke="black" points="165.74,-32.25 176.19,-34.01 169.12,-26.12 165.74,-32.25"/>
<text text-anchor="middle" x="150" y="-29.8" font-family="Times,serif" font-size="14.00"> </text>
</g>
<!-- 1 -->
<g id="node3" class="node">
<title>1</title>
<ellipse fill="none" stroke="black" cx="601" cy="-83" rx="18" ry="18"/>
<ellipse fill="none" stroke="black" cx="601" cy="-83" rx="22" ry="22"/>
<text text-anchor="middle" x="601" y="-79.3" font-family="Times,serif" font-size="14.00">7</text>
</g>
<!-- 3 -->
<g id="node5" class="node">
<title>3</title>
<ellipse fill="none" stroke="black" cx="272" cy="-45" rx="18" ry="18"/>
<text text-anchor="middle" x="272" y="-41.3" font-family="Times,serif" font-size="14.00">2</text>
</g>
<!-- 2&#45;&gt;3 -->
<g id="edge4" class="edge">
<title>2&#45;&gt;3</title>
<path fill="none" stroke="black" d="M209.14,-45C219.29,-45 232.37,-45 243.88,-45"/>
<polygon fill="black" stroke="black" points="243.89,-48.5 253.89,-45 243.89,-41.5 243.89,-48.5"/>
<text text-anchor="middle" x="231.5" y="-48.8" font-family="Times,serif" font-size="14.00">a</text>
</g>
<!-- 4 -->
<g id="node6" class="node">
<title>4</title>
<ellipse fill="none" stroke="black" cx="354" cy="-83" rx="18" ry="18"/>
<text text-anchor="middle" x="354" y="-79.3" font-family="Times,serif" font-size="14.00">4</text>
</g>
<!-- 3&#45;&gt;4 -->
<g id="edge6" class="edge">
<title>3&#45;&gt;4</title>
<path fill="none" stroke="black" d="M288.81,-52.51C300.05,-57.85 315.39,-65.14 328.25,-71.25"/>
<polygon fill="black" stroke="black" points="326.97,-74.51 337.5,-75.64 329.97,-68.19 326.97,-74.51"/>
<text text-anchor="middle" x="313" y="-70.8" font-family="Times,serif" font-size="14.00"> </text>
</g>
<!-- 5 -->
<g id="node7" class="node">
<title>5</title>
<ellipse fill="none" stroke="black" cx="354" cy="-18" rx="18" ry="18"/>
<text text-anchor="middle" x="354" y="-14.3" font-family="Times,serif" font-size="14.00">3</text>
</g>
<!-- 3&#45;&gt;5 -->
<g id="edge5" class="edge">
<title>3&#45;&gt;5</title>
<path fill="none" stroke="black" d="M289.19,-39.54C300.03,-35.88 314.55,-30.98 326.99,-26.78"/>
<polygon fill="black" stroke="black" points="328.48,-29.97 336.83,-23.46 326.24,-23.34 328.48,-29.97"/>
<text text-anchor="middle" x="313" y="-37.8" font-family="Times,serif" font-size="14.00">n</text>
</g>
<!-- 6 -->
<g id="node8" class="node">
<title>6</title>
<ellipse fill="none" stroke="black" cx="436" cy="-83" rx="18" ry="18"/>
<text text-anchor="middle" x="436" y="-79.3" font-family="Times,serif" font-size="14.00">5</text>
</g>
<!-- 4&#45;&gt;6 -->
<g id="edge7" class="edge">
<title>4&#45;&gt;6</title>
<path fill="none" stroke="black" d="M372.36,-83C382.7,-83 396.06,-83 407.78,-83"/>
<polygon fill="black" stroke="black" points="407.95,-86.5 417.95,-83 407.95,-79.5 407.95,-86.5"/>
<text text-anchor="middle" x="395" y="-86.8" font-family="Times,serif" font-size="14.00">n</text>
</g>
<!-- 5&#45;&gt;3 -->
<g id="edge8" class="edge">
<title>5&#45;&gt;3</title>
<path fill="none" stroke="black" d="M337.11,-11.52C328.28,-8.89 317.23,-7.25 308,-11 301.35,-13.7 295.28,-18.33 290.12,-23.32"/>
<polygon fill="black" stroke="black" points="287.5,-21 283.26,-30.71 292.63,-25.76 287.5,-21"/>
<text text-anchor="middle" x="313" y="-14.8" font-family="Times,serif" font-size="14.00">a</text>
</g>
<!-- 6&#45;&gt;1 -->
<g id="edge10" class="edge">
<title>6&#45;&gt;1</title>
<path fill="none" stroke="black" d="M453.63,-87.02C459.41,-88.24 465.96,-89.4 472,-90 488.84,-91.67 398.6,-102.44 561,-89 563.57,-88.79 566.22,-88.51 568.89,-88.19"/>
<polygon fill="black" stroke="black" points="569.59,-91.62 579.01,-86.78 568.63,-84.69 569.59,-91.62"/>
<text text-anchor="middle" x="517" y="-96.8" font-family="Times,serif" font-size="14.00"> </text>
</g>
<!-- 7 -->
<g id="node9" class="node">
<title>7</title>
<ellipse fill="none" stroke="black" cx="517" cy="-56" rx="18" ry="18"/>
<text text-anchor="middle" x="517" y="-52.3" font-family="Times,serif" font-size="14.00">6</text>
</g>
<!-- 6&#45;&gt;7 -->
<g id="edge9" class="edge">
<title>6&#45;&gt;7</title>
<path fill="none" stroke="black" d="M453.37,-77.41C463.96,-73.79 477.98,-68.99 490.07,-64.86"/>
<polygon fill="black" stroke="black" points="491.32,-68.13 499.65,-61.59 489.06,-61.51 491.32,-68.13"/>
<text text-anchor="middle" x="476.5" y="-74.8" font-family="Times,serif" font-size="14.00">a</text>
</g>
<!-- 7&#45;&gt;1 -->
<g id="edge11" class="edge">
<title>7&#45;&gt;1</title>
<path fill="none" stroke="black" d="M534.2,-61.33C544.41,-64.7 557.91,-69.14 570.02,-73.13"/>
<polygon fill="black" stroke="black" points="569.17,-76.53 579.76,-76.34 571.36,-69.88 569.17,-76.53"/>
<text text-anchor="middle" x="557" y="-73.8" font-family="Times,serif" font-size="14.00">s</text>
</g>
</g>
</svg>
