<?xml version="1.0" encoding="UTF-8" standalone="no"?>
<!DOCTYPE svg PUBLIC "-//W3C//DTD SVG 1.1//EN"
 "http://www.w3.org/Graphics/SVG/1.1/DTD/svg11.dtd">
<!-- Generated by graphviz version 2.43.0 (0)
 -->
<!-- Title: %3 Pages: 1 -->
<svg width="615pt" height="125pt"
 viewBox="0.00 0.00 615.00 125.00" xmlns="http://www.w3.org/2000/svg" xmlns:xlink="http://www.w3.org/1999/xlink">
<g id="graph0" class="graph" transform="scale(1 1) rotate(0) translate(4 121)">
<title>%3</title>
<polygon fill="white" stroke="transparent" points="-4,4 -4,-121 611,-121 611,4 -4,4"/>
<g id="node1" class="node">
<title></title>
</g>
<!-- 0 -->
<g id="node2" class="node">
<title>0</title>
<ellipse fill="none" stroke="black" cx="109" cy="-45" rx="18" ry="18"/>
<text text-anchor="middle" x="109" y="-41.3" font-family="Times,serif" font-size="14.00">0</text>
</g>
<!-- &#45;&gt;0 -->
<g id="edge1" class="edge">
<title>&#45;&gt;0</title>
<path fill="none" stroke="black" d="M54.19,-45C62.65,-45 72.05,-45 80.6,-45"/>
<polygon fill="black" stroke="black" points="80.83,-48.5 90.83,-45 80.83,-41.5 80.83,-48.5"/>
</g>
<!-- 1 -->
<g id="node3" class="node">
<title>1</title>
<ellipse fill="none" stroke="black" cx="190" cy="-45" rx="18" ry="18"/>
<text text-anchor="middle" x="190" y="-41.3" font-family="Times,serif" font-size="14.00">1</text>
</g>
<!-- 0&#45;&gt;1 -->
<g id="edge2" class="edge">
<title>0&#45;&gt;1</title>
<path fill="none" stroke="black" d="M127.14,-45C137.29,-45 150.37,-45 161.88,-45"/>
<polygon fill="black" stroke="black" points="161.89,-48.5 171.89,-45 161.89,-41.5 161.89,-48.5"/>
<text text-anchor="middle" x="149.5" y="-48.8" font-family="Times,serif" font-size="14.00">a</text>
</g>
<!-- 3 -->
<g id="node4" class="node">
<title>3</title>
<ellipse fill="none" stroke="black" cx="272" cy="-99" rx="18" ry="18"/>
<text text-anchor="middle" x="272" y="-95.3" font-family="Times,serif" font-size="14.00">3</text>
</g>
<!-- 1&#45;&gt;3 -->
<g id="edge3" class="edge">
<title>1&#45;&gt;3</title>
<path fill="none" stroke="black" d="M205.3,-54.65C217.17,-62.67 234.28,-74.22 248.06,-83.52"/>
<polygon fill="black" stroke="black" points="246.31,-86.55 256.55,-89.25 250.22,-80.75 246.31,-86.55"/>
<text text-anchor="middle" x="231" y="-78.8" font-family="Times,serif" font-size="14.00">b</text>
</g>
<!-- 5 -->
<g id="node5" class="node">
<title>5</title>
<ellipse fill="none" stroke="black" cx="272" cy="-45" rx="18" ry="18"/>
<text text-anchor="middle" x="272" y="-41.3" font-family="Times,serif" font-size="14.00">5</text>
</g>
<!-- 1&#45;&gt;5 -->
<g id="edge4" class="edge">
<title>1&#45;&gt;5</title>
<path fill="none" stroke="black" d="M208.36,-45C218.7,-45 232.06,-45 243.78,-45"/>
<polygon fill="black" stroke="black" points="243.95,-48.5 253.95,-45 243.95,-41.5 243.95,-48.5"/>
<text text-anchor="middle" x="231" y="-48.8" font-family="Times,serif" font-size="14.00">b</text>
</g>
<!-- 4 -->
<g id="node9" class="node">
<title>4</title>
<ellipse fill="none" stroke="black" cx="354" cy="-99" rx="18" ry="18"/>
<text text-anchor="middle" x="354" y="-95.3" font-family="Times,serif" font-size="14.00">4</text>
</g>
<!-- 3&#45;&gt;4 -->
<g id="edge8" class="edge">
<title>3&#45;&gt;4</title>
<path fill="none" stroke="black" d="M290.36,-99C300.7,-99 314.06,-99 325.78,-99"/>
<polygon fill="black" stroke="black" points="325.95,-102.5 335.95,-99 325.95,-95.5 325.95,-102.5"/>
<text text-anchor="middle" x="313" y="-102.8" font-family="Times,serif" font-size="14.00">c</text>
</g>
<!-- 6 -->
<g id="node10" class="node">
<title>6</title>
<ellipse fill="none" stroke="black" cx="354" cy="-45" rx="18" ry="18"/>
<text text-anchor="middle" x="354" y="-41.3" font-family="Times,serif" font-size="14.00">6</text>
</g>
<!-- 5&#45;&gt;6 -->
<g id="edge10" class="edge">
<title>5&#45;&gt;6</title>
<path fill="none" stroke="black" d="M290.36,-45C300.7,-45 314.06,-45 325.78,-45"/>
<polygon fill="black" stroke="black" points="325.95,-48.5 335.95,-45 325.95,-41.5 325.95,-48.5"/>
<text text-anchor="middle" x="313" y="-48.8" font-family="Times,serif" font-size="14.00">d</text>
</g>
<!-- 2 -->
<g id="node6" class="node">
<title>2</title>
<ellipse fill="none" stroke="black" cx="427" cy="-45" rx="18" ry="18"/>
<text text-anchor="middle" x="427" y="-41.3" font-family="Times,serif" font-size="14.00">2</text>
</g>
<!-- 2&#45;&gt;1 -->
<g id="edge5" class="edge">
<title>2&#45;&gt;1</title>
<path fill="none" stroke="black" d="M411.58,-35.47C401.09,-29.13 386.28,-21.37 372,-18 320.96,-5.95 305.37,-7.46 254,-18 240.66,-20.74 226.65,-26.43 215.24,-31.88"/>
<polygon fill="black" stroke="black" points="213.34,-28.92 205.97,-36.53 216.47,-35.18 213.34,-28.92"/>
</g>
<!-- 8 -->
<g id="node7" class="node">
<title>8</title>
<ellipse fill="none" stroke="black" cx="508" cy="-72" rx="18" ry="18"/>
<text text-anchor="middle" x="508" y="-68.3" font-family="Times,serif" font-size="14.00">8</text>
</g>
<!-- 2&#45;&gt;8 -->
<g id="edge6" class="edge">
<title>2&#45;&gt;8</title>
<path fill="none" stroke="black" d="M444.37,-50.59C454.96,-54.21 468.98,-59.01 481.07,-63.14"/>
<polygon fill="black" stroke="black" points="480.06,-66.49 490.65,-66.41 482.32,-59.87 480.06,-66.49"/>
<text text-anchor="middle" x="467.5" y="-62.8" font-family="Times,serif" font-size="14.00">e</text>
</g>
<!-- 9 -->
<g id="node8" class="node">
<title>9</title>
<ellipse fill="none" stroke="black" cx="508" cy="-18" rx="18" ry="18"/>
<text text-anchor="middle" x="508" y="-14.3" font-family="Times,serif" font-size="14.00">9</text>
</g>
<!-- 2&#45;&gt;9 -->
<g id="edge7" class="edge">
<title>2&#45;&gt;9</title>
<path fill="none" stroke="black" d="M444.37,-39.41C454.96,-35.79 468.98,-30.99 481.07,-26.86"/>
<polygon fill="black" stroke="black" points="482.32,-30.13 490.65,-23.59 480.06,-23.51 482.32,-30.13"/>
<text text-anchor="middle" x="467.5" y="-35.8" font-family="Times,serif" font-size="14.00">f</text>
</g>
<!-- 7 -->
<g id="node11" class="node">
<title>7</title>
<ellipse fill="none" stroke="black" cx="585" cy="-44" rx="18" ry="18"/>
<ellipse fill="none" stroke="black" cx="585" cy="-44" rx="22" ry="22"/>
<text text-anchor="middle" x="585" y="-40.3" font-family="Times,serif" font-size="14.00">7</text>
</g>
<!-- 8&#45;&gt;7 -->
<g id="edge12" class="edge">
<title>8&#45;&gt;7</title>
<path fill="none" stroke="black" d="M525.27,-65.92C533.8,-62.74 544.52,-58.74 554.45,-55.03"/>
<polygon fill="black" stroke="black" points="555.87,-58.24 564.02,-51.46 553.43,-51.68 555.87,-58.24"/>
</g>
<!-- 9&#45;&gt;7 -->
<g id="edge13" class="edge">
<title>9&#45;&gt;7</title>
<path fill="none" stroke="black" d="M525.27,-23.64C533.8,-26.6 544.52,-30.31 554.45,-33.76"/>
<polygon fill="black" stroke="black" points="553.42,-37.1 564.02,-37.07 555.72,-30.49 553.42,-37.1"/>
</g>
<!-- 4&#45;&gt;2 -->
<g id="edge9" class="edge">
<title>4&#45;&gt;2</title>
<path fill="none" stroke="black" d="M368.69,-88.59C378.58,-81.07 392.16,-70.74 403.61,-62.03"/>
<polygon fill="black" stroke="black" points="406.03,-64.59 411.87,-55.75 401.79,-59.02 406.03,-64.59"/>
</g>
<!-- 6&#45;&gt;2 -->
<g id="edge11" class="edge">
<title>6&#45;&gt;2</title>
<path fill="none" stroke="black" d="M372.19,-45C380.21,-45 389.95,-45 398.93,-45"/>
<polygon fill="black" stroke="black" points="398.97,-48.5 408.97,-45 398.97,-41.5 398.97,-48.5"/>
</g>
</g>
</svg>
